<svg width="1854" height="1080" viewBox="0 0 1854 1080" fill="none" xmlns="http://www.w3.org/2000/svg">
<rect width="1854" height="1080" rx="50" fill="#F2F4F8"/>
<rect x="504" y="20" width="1330" height="1040" rx="40" fill="white"/>
<rect x="95" y="220" width="314" height="20" rx="10" fill="#565F73" fill-opacity="0.2"/>
<rect x="1036" y="470" width="200" height="20" rx="10" fill="#565F73" fill-opacity="0.2"/>
<rect x="1286" y="470" width="200" height="20" rx="10" fill="#565F73" fill-opacity="0.2"/>
<rect x="1536" y="470" width="200" height="20" rx="10" fill="#565F73" fill-opacity="0.2"/>
<rect x="1536" y="50" width="200" height="20" rx="10" fill="#565F73" fill-opacity="0.2"/>
<rect x="599" y="50" width="88" height="88" rx="15" fill="#565F73" fill-opacity="0.2"/>
<rect x="95" y="320" width="314" height="20" rx="10" fill="#565F73" fill-opacity="0.2"/>
<rect x="95" y="420" width="314" height="20" rx="10" fill="#565F73" fill-opacity="0.2"/>
<rect x="95" y="520" width="314" height="20" rx="10" fill="#565F73" fill-opacity="0.2"/>
<rect x="1036" y="720" width="700" height="102" rx="15" fill="#F2F4F8"/>
<rect x="1036" y="570" width="700" height="102" rx="15" fill="#F2F4F8"/>
<rect x="1036" y="880" width="143" height="40" rx="15" fill="#F2F4F8"/>
<rect x="1204" y="880" width="143" height="40" rx="15" fill="#F2F4F8"/>
<rect x="1372" y="880" width="143" height="40" rx="15" fill="#F2F4F8"/>
<rect x="601.5" y="222.5" width="195" height="195" rx="37.5" fill="white" stroke="#F2F4F8" stroke-width="5"/>
<rect x="1038.5" y="222.5" width="195" height="195" rx="97.5" fill="#F2F4F8" stroke="#F2F4F8" stroke-width="5"/>
<rect x="1288.5" y="222.5" width="195" height="195" rx="97.5" fill="#F2F4F8" stroke="#F2F4F8" stroke-width="5"/>
<rect x="1538.5" y="222.5" width="195" height="195" rx="97.5" fill="#F2F4F8" stroke="#F2F4F8" stroke-width="5"/>
<rect x="601.5" y="472.5" width="195" height="195" rx="37.5" fill="white" stroke="#F2F4F8" stroke-width="5"/>
<rect x="601.5" y="722.5" width="195" height="195" rx="37.5" fill="white" stroke="#F2F4F8" stroke-width="5"/>
<rect x="50" y="50" width="20" height="20" rx="10" fill="#565F73" fill-opacity="0.2"/>
<rect x="90" y="50" width="20" height="20" rx="10" fill="#565F73" fill-opacity="0.2"/>
<rect x="130" y="50" width="20" height="20" rx="10" fill="#565F73" fill-opacity="0.2"/>
</svg>
